# xmcd
#
# Track frame offsets:
#	150
#	3760
#	7880
#	11980
#	16080
#	19500
#	27157
#	34905
#	38482
#	42262
#	49892
#	54282
#	57925
#	61577
#	65722
#	69842
#	73987
#	77542
#	80985
#	84542
#	92282
#	96485
#	99937
#	103545
#	107235
#	111375
#	115560
#	119140
#	122832
#	126887
#	130442
#	138245
#	141805
#	145235
#	149345
#	152985
#	157140
#	160727
#	164892
#	169027
#	176815
#	180412
#	188127
#	192235
#	196037
#	199632
#	207410
#	211502
#	215587
#	219730
#	227427
#	235197
#	239017
#	242952
#	247360
#	255170
#	258730
#	262147
#	266247
#	270390
#	274070
#	281712
#	285850
#	289270
#	292822
#	296517
#	300932
#	308727
#	312855
#	316712
#
# Disc length: 4266 seconds
#
# Revision: 1
# Processed by: cddbd v1.5.2PL0 Copyright (c) Steve Scherf et al.
# Submitted via: audiograbber 1.83.01
#
DISCID=0410a846
DTITLE=Uwe Heger - Uwe's Blues Collection
DYEAR=2001
DGENRE=Saxophon
TTITLE0=Playalong - Type 1
TTITLE1=Playalong - Type 2
TTITLE2=Playalong - Type 3
TTITLE3=Playalong - Type 4
TTITLE4=Playalong - Type 5
TTITLE5=Playalong - Type 6
TTITLE6=Playalong - Type 7
TTITLE7=Playalong - Type 8
TTITLE8=Playalong - Type 9
TTITLE9=Playalong - Type 10
TTITLE10=Playalong - Type 11
TTITLE11=Playalong - Type 12
TTITLE12=Playalong - Type 13
TTITLE13=On The Road - Demo
TTITLE14=Cool Down - Demo
TTITLE15=That's The Way It Is - Demo
TTITLE16=Blues Express - Demo
TTITLE17=Get Away - Demo
TTITLE18=Shit Happened - Demo
TTITLE19=Hammer On My Head - Demo
TTITLE20=Be Honest - Demo
TTITLE21=First Of All - Demo
TTITLE22=I'm Not As Black As I'm Painted - Demo
TTITLE23=Buzz Off - Demo
TTITLE24=I've Had A Dream - Demo
TTITLE25=Take An Aspirin - Demo
TTITLE26=Friday Blues - Demo
TTITLE27=Take It Easy - Demo
TTITLE28=Leave Me Alone - Demo
TTITLE29=Don't Bother Me - Demo
TTITLE30=So Sentimental - Demo
TTITLE31=No Comment - Demo
TTITLE32=Dig In - Demo
TTITLE33=Don't Be So Stereotype - Demo
TTITLE34=No Hurry - Demo
TTITLE35=I Love Blueberries - Demo
TTITLE36=You 've Got It - Demo
TTITLE37=Get A Job - Demo
TTITLE38=The Same Old Story - Demo
TTITLE39=Quite The Thing - Demo
TTITLE40=What A Bitch - Demo
TTITLE41=Ain't No Problems, Man - Demo
TTITLE42=Be Smart - Demo
TTITLE43=I Miss You - Demo
TTITLE44=That's All About - Demo
TTITLE45=Hiccup Blues - Demo
TTITLE46=Cool School - Demo
TTITLE47=You Are My Very First Date - Demo
TTITLE48=Marcel's Blues - Demo
TTITLE49=My Honey - Demo
TTITLE50=Feel Slow - Demo
TTITLE51=Rock It  - Demo
TTITLE52=Annie's Blues - Demo
TTITLE53=See You Later - Demo
TTITLE54=Think About It - Demo
TTITLE55=Take A Break - Demo
TTITLE56=I Feel Sorry - Demo
TTITLE57=Still Alive - Demo
TTITLE58=Say It Short - Demo
TTITLE59=Knock Out - Demo
TTITLE60=Thrill The Trill - Demo
TTITLE61=New York - Demo
TTITLE62=Stay Strong - Demo
TTITLE63=Easy Goin' - Demo
TTITLE64=Uwe's Blues - Demo
TTITLE65=Wild Love - Demo
TTITLE66=Sad At All - Demo
TTITLE67=Here Is My Sexy Girl - Demo
TTITLE68=Full Speed - Demo
TTITLE69=No Excuse - Demo
EXTD=
EXTT0=
EXTT1=
EXTT2=
EXTT3=
EXTT4=
EXTT5=
EXTT6=
EXTT7=
EXTT8=
EXTT9=
EXTT10=
EXTT11=
EXTT12=
EXTT13=
EXTT14=
EXTT15=
EXTT16=
EXTT17=
EXTT18=
EXTT19=
EXTT20=
EXTT21=
EXTT22=
EXTT23=
EXTT24=
EXTT25=
EXTT26=
EXTT27=
EXTT28=
EXTT29=
EXTT30=
EXTT31=
EXTT32=
EXTT33=
EXTT34=
EXTT35=
EXTT36=
EXTT37=
EXTT38=
EXTT39=
EXTT40=
EXTT41=
EXTT42=
EXTT43=
EXTT44=
EXTT45=
EXTT46=
EXTT47=
EXTT48=
EXTT49=
EXTT50=
EXTT51=
EXTT52=
EXTT53=
EXTT54=
EXTT55=
EXTT56=
EXTT57=
EXTT58=
EXTT59=
EXTT60=
EXTT61=
EXTT62=
EXTT63=
EXTT64=
EXTT65=
EXTT66=
EXTT67=
EXTT68=
EXTT69=
PLAYORDER=
